<svg width="45" height="140" viewBox="0 0 45 140" fill="none" xmlns="http://www.w3.org/2000/svg">
<path d="M0.219996 122.36C0.219996 119.2 0.679996 116.42 1.6 114.02C2.52 111.58 3.9 109.4 5.74 107.48L11.62 112.46C9.34 115.34 8.2 118.36 8.2 121.52C8.2 123.16 8.52 124.42 9.16 125.3C9.76 126.14 10.62 126.56 11.74 126.56C12.54 126.56 13.2 126.34 13.72 125.9C14.24 125.46 14.74 124.72 15.22 123.68C15.7 122.64 16.3 121 17.02 118.76C18.38 114.48 20.1 111.36 22.18 109.4C24.22 107.4 27.06 106.4 30.7 106.4C33.34 106.4 35.68 107.08 37.72 108.44C39.72 109.8 41.28 111.78 42.4 114.38C43.52 116.94 44.08 119.96 44.08 123.44C44.08 130.08 42.06 135.5 38.02 139.7L31.96 134.24C34.68 130.92 36.04 127.46 36.04 123.86C36.04 121.98 35.64 120.52 34.84 119.48C34 118.44 32.9 117.92 31.54 117.92C30.58 117.92 29.8 118.12 29.2 118.52C28.56 118.92 28 119.64 27.52 120.68C27 121.68 26.44 123.16 25.84 125.12C24.36 129.84 22.58 133.16 20.5 135.08C18.42 137 15.8 137.96 12.64 137.96C10.16 137.96 7.98 137.3 6.1 135.98C4.22 134.62 2.78 132.76 1.78 130.4C0.739997 128 0.219996 125.32 0.219996 122.36ZM29.02 68.9553C31.9 68.9553 34.48 69.5953 36.76 70.8753C39.04 72.1153 40.84 73.9953 42.16 76.5153C43.44 79.0353 44.08 82.1153 44.08 85.7553C44.08 91.2753 42.74 95.4553 40.06 98.2953C37.34 101.135 33.66 102.555 29.02 102.555H1.3L1.3 91.4553H28.66C31.18 91.4553 33.04 91.0153 34.24 90.1353C35.4 89.2153 35.98 87.7553 35.98 85.7553C35.98 83.7553 35.38 82.3153 34.18 81.4353C32.98 80.5553 31.14 80.1153 28.66 80.1153H1.3V68.9553H29.02ZM27.64 48.9477V52.0077H43V63.1077H1.3V48.6477C1.3 42.7677 2.36 38.3877 4.48 35.5077C6.6 32.5877 9.86 31.1277 14.26 31.1277C16.9 31.1277 19.1 31.7477 20.86 32.9877C22.62 34.1877 24.2 36.1277 25.6 38.8077L43 28.4277V40.7877L27.64 48.9477ZM20.08 52.0077V48.2877C20.08 44.4477 18.14 42.5277 14.26 42.5277C12.46 42.5277 11.14 43.0677 10.3 44.1477C9.46 45.1877 9.04 46.7677 9.04 48.8877V52.0077H20.08ZM43 25.9006H1.3L1.3 0.280623L9.16 1.42062V14.8006H19.18V3.04062H27.04V14.8006H43V25.9006Z" fill="white"/>
</svg>
